<?xml version="1.0" encoding="UTF-8" standalone="no"?>
<!-- Generator: Adobe Illustrator 14.0.0, SVG Export Plug-In  -->

<svg
   xmlns:dc="http://purl.org/dc/elements/1.1/"
   xmlns:cc="http://creativecommons.org/ns#"
   xmlns:rdf="http://www.w3.org/1999/02/22-rdf-syntax-ns#"
   xmlns:svg="http://www.w3.org/2000/svg"
   xmlns="http://www.w3.org/2000/svg"
   xmlns:sodipodi="http://sodipodi.sourceforge.net/DTD/sodipodi-0.dtd"
   xmlns:inkscape="http://www.inkscape.org/namespaces/inkscape"
   version="1.1"
   x="0px"
   y="0px"
   width="128.0006"
   height="128.00015"
   viewBox="-0.866 -0.866 283.46499 283.46401"
   enable-background="new -0.866 -0.866 285 285"
   xml:space="preserve"
   id="svg2"
   inkscape:version="0.92.3 (2405546, 2018-03-11)"
   sodipodi:docname="ubuntustudio-logo.svg"
   inkscape:export-filename="/home/erich/bzr/ubuntustudio-menu/trunk/usr/share/icons/hicolor/48x48/places/ubuntustudio-logo.png"
   inkscape:export-xdpi="16.17"
   inkscape:export-ydpi="16.17"><metadata
   id="metadata12"><rdf:RDF><cc:Work
       rdf:about=""><dc:format>image/svg+xml</dc:format><dc:type
         rdf:resource="http://purl.org/dc/dcmitype/StillImage" /><dc:title></dc:title></cc:Work></rdf:RDF></metadata><sodipodi:namedview
   pagecolor="#ffffff"
   bordercolor="#666666"
   borderopacity="1"
   objecttolerance="10"
   gridtolerance="10"
   guidetolerance="10"
   inkscape:pageopacity="0"
   inkscape:pageshadow="2"
   inkscape:window-width="1920"
   inkscape:window-height="1019"
   id="namedview10"
   showgrid="false"
   inkscape:zoom="0.82807018"
   inkscape:cx="126.71677"
   inkscape:cy="-107.31598"
   inkscape:window-x="0"
   inkscape:window-y="33"
   inkscape:window-maximized="1"
   inkscape:current-layer="layer2"
   inkscape:pagecheckerboard="true"
   scale-x="2.2"
   fit-margin-top="0"
   fit-margin-left="0"
   fit-margin-right="0"
   fit-margin-bottom="0" />
<defs
   id="defs4"><inkscape:perspective
   sodipodi:type="inkscape:persp3d"
   inkscape:vp_x="0 : 315.5748 : 1"
   inkscape:vp_y="0 : 2214.5599 : 0"
   inkscape:vp_z="631.14957 : 315.57477 : 1"
   inkscape:persp3d-origin="315.57479 : 210.3832 : 1"
   id="perspective14" />
<inkscape:perspective
   id="perspective2855"
   inkscape:persp3d-origin="1.10728 : 0.73818657 : 1"
   inkscape:vp_z="2.2145599 : 1.10728 : 1"
   inkscape:vp_y="0 : 2214.5599 : 0"
   inkscape:vp_x="0 : 1.10728 : 1"
   sodipodi:type="inkscape:persp3d" /><inkscape:perspective
   id="perspective2885"
   inkscape:persp3d-origin="1.10728 : 0.73818657 : 1"
   inkscape:vp_z="2.2145599 : 1.10728 : 1"
   inkscape:vp_y="0 : 2214.5599 : 0"
   inkscape:vp_x="0 : 1.10728 : 1"
   sodipodi:type="inkscape:persp3d" /><inkscape:perspective
   id="perspective2913"
   inkscape:persp3d-origin="1.10728 : 0.73818657 : 1"
   inkscape:vp_z="2.2145599 : 1.10728 : 1"
   inkscape:vp_y="0 : 2214.5599 : 0"
   inkscape:vp_x="0 : 1.10728 : 1"
   sodipodi:type="inkscape:persp3d" /><inkscape:perspective
   id="perspective2938"
   inkscape:persp3d-origin="1.10728 : 0.73818657 : 1"
   inkscape:vp_z="2.2145599 : 1.10728 : 1"
   inkscape:vp_y="0 : 2214.5599 : 0"
   inkscape:vp_x="0 : 1.10728 : 1"
   sodipodi:type="inkscape:persp3d" /><inkscape:perspective
   id="perspective2965"
   inkscape:persp3d-origin="1.10728 : 0.73818657 : 1"
   inkscape:vp_z="2.2145599 : 1.10728 : 1"
   inkscape:vp_y="0 : 2214.5599 : 0"
   inkscape:vp_x="0 : 1.10728 : 1"
   sodipodi:type="inkscape:persp3d" /><inkscape:perspective
   id="perspective2989"
   inkscape:persp3d-origin="1.10728 : 0.73818657 : 1"
   inkscape:vp_z="2.2145599 : 1.10728 : 1"
   inkscape:vp_y="0 : 2214.5599 : 0"
   inkscape:vp_x="0 : 1.10728 : 1"
   sodipodi:type="inkscape:persp3d" /><inkscape:perspective
   id="perspective2989-3"
   inkscape:persp3d-origin="1.10728 : 0.73818657 : 1"
   inkscape:vp_z="2.2145599 : 1.10728 : 1"
   inkscape:vp_y="0 : 2214.5599 : 0"
   inkscape:vp_x="0 : 1.10728 : 1"
   sodipodi:type="inkscape:persp3d" /><inkscape:perspective
   id="perspective3029"
   inkscape:persp3d-origin="1.10728 : 0.73818657 : 1"
   inkscape:vp_z="2.2145599 : 1.10728 : 1"
   inkscape:vp_y="0 : 2214.5599 : 0"
   inkscape:vp_x="0 : 1.10728 : 1"
   sodipodi:type="inkscape:persp3d" /><inkscape:perspective
   id="perspective3060"
   inkscape:persp3d-origin="1.10728 : 0.73818657 : 1"
   inkscape:vp_z="2.2145599 : 1.10728 : 1"
   inkscape:vp_y="0 : 2214.5599 : 0"
   inkscape:vp_x="0 : 1.10728 : 1"
   sodipodi:type="inkscape:persp3d" /><inkscape:perspective
   id="perspective3082"
   inkscape:persp3d-origin="1.10728 : 0.73818657 : 1"
   inkscape:vp_z="2.2145599 : 1.10728 : 1"
   inkscape:vp_y="0 : 2214.5599 : 0"
   inkscape:vp_x="0 : 1.10728 : 1"
   sodipodi:type="inkscape:persp3d" /><inkscape:perspective
   id="perspective3082-8"
   inkscape:persp3d-origin="1.10728 : 0.73818657 : 1"
   inkscape:vp_z="2.2145599 : 1.10728 : 1"
   inkscape:vp_y="0 : 2214.5599 : 0"
   inkscape:vp_x="0 : 1.10728 : 1"
   sodipodi:type="inkscape:persp3d" /><inkscape:perspective
   id="perspective3113"
   inkscape:persp3d-origin="1.10728 : 0.73818657 : 1"
   inkscape:vp_z="2.2145599 : 1.10728 : 1"
   inkscape:vp_y="0 : 2214.5599 : 0"
   inkscape:vp_x="0 : 1.10728 : 1"
   sodipodi:type="inkscape:persp3d" /><inkscape:perspective
   id="perspective3159"
   inkscape:persp3d-origin="1.10728 : 0.73818657 : 1"
   inkscape:vp_z="2.2145599 : 1.10728 : 1"
   inkscape:vp_y="0 : 2214.5599 : 0"
   inkscape:vp_x="0 : 1.10728 : 1"
   sodipodi:type="inkscape:persp3d" /><inkscape:perspective
   id="perspective2932"
   inkscape:persp3d-origin="1.10728 : 0.73818657 : 1"
   inkscape:vp_z="2.2145599 : 1.10728 : 1"
   inkscape:vp_y="0 : 2214.5599 : 0"
   inkscape:vp_x="0 : 1.10728 : 1"
   sodipodi:type="inkscape:persp3d" /><inkscape:perspective
   id="perspective3722"
   inkscape:persp3d-origin="1.10728 : 0.73818657 : 1"
   inkscape:vp_z="2.2145599 : 1.10728 : 1"
   inkscape:vp_y="0 : 2214.5599 : 0"
   inkscape:vp_x="0 : 1.10728 : 1"
   sodipodi:type="inkscape:persp3d" /><inkscape:perspective
   id="perspective3749"
   inkscape:persp3d-origin="1.10728 : 0.73818657 : 1"
   inkscape:vp_z="2.2145599 : 1.10728 : 1"
   inkscape:vp_y="0 : 2214.5599 : 0"
   inkscape:vp_x="0 : 1.10728 : 1"
   sodipodi:type="inkscape:persp3d" /><inkscape:perspective
   id="perspective3771"
   inkscape:persp3d-origin="1.10728 : 0.73818657 : 1"
   inkscape:vp_z="2.2145599 : 1.10728 : 1"
   inkscape:vp_y="0 : 2214.5599 : 0"
   inkscape:vp_x="0 : 1.10728 : 1"
   sodipodi:type="inkscape:persp3d" /></defs>


<g
   inkscape:groupmode="layer"
   id="layer1"
   inkscape:label="Circle"
   style="display:inline"
   transform="translate(-0.8023091,-0.17062466)"><path
     d="m 283.40131,141.03862 c 0,78.273 -63.457,141.73 -141.734,141.73 -78.277001,0 -141.7310009,-63.456 -141.7310009,-141.73 0,-78.278995 63.4529999,-141.73399534 141.7300009,-141.73399534 78.277,0 141.735,63.45500034 141.735,141.73399534 z"
     id="path6-8"
     style="fill:#0094f0;fill-opacity:1"
     inkscape:connector-curvature="0" /></g><g
   inkscape:groupmode="layer"
   id="layer2"
   inkscape:label="logo"
   style="display:inline"
   transform="translate(-0.8023091,-0.17062466)"><path
     style="fill:#ffffff;fill-opacity:1;stroke:none;stroke-width:1px;stroke-linecap:butt;stroke-linejoin:miter;stroke-opacity:1"
     d="m 168.6002,25.484249 c -10.37944,0.541234 -13.99949,17.430282 0.97722,20.459394 12.999,2.618375 31.44746,13.258052 41.36907,23.7698 8.989,9.536661 23.28113,-1.546097 16.17845,-11.667824 -13.89194,-18.021541 -37.5084,-27.82864 -56.40743,-32.452832 -0.74852,-0.11842 -1.42535,-0.144625 -2.11731,-0.108538 z m -24.53913,35.926045 c -21.40148,0.143721 -43.15517,8.27031 -59.773422,24.746641 -7.381284,7.785258 4.117745,22.232245 14.441172,13.675775 49.91869,-41.374613 104.72563,-7.314447 104.72563,45.31457 0,57.12859 -72.66642,77.15996 -104.23702,40.86452 -9.018448,-9.05796 -21.018961,5.1778 -14.06114,12.97028 61.9977,57.98291 139.30844,4.19901 139.30844,-53.50918 0,-55.500519 -39.5463,-84.336966 -80.40366,-84.062606 z m -1.35726,37.988265 c -23.68069,0 -42.8349,19.201011 -42.8349,42.872471 0,23.67146 19.15421,42.87247 42.8349,42.87247 23.68069,0 42.88919,-19.20101 42.88919,-42.87247 0,-23.67146 -19.2085,-42.872471 -42.88919,-42.872471 z M 37.543866,103.08885 c -3.507663,-0.26298 -7.108427,1.35818 -9.12074,5.53543 -8.945882,20.91996 -5.954852,46.27085 -0.760061,65.0142 4.195974,11.37193 23.332779,6.61243 18.350059,-8.90011 -4.063802,-12.61729 -3.786792,-33.91373 0.542901,-47.7024 2.458795,-7.8118 -3.166061,-13.50884 -9.012159,-13.94712 z m 37.460172,10.3111 c -3.341908,0.033 -6.881999,1.83795 -9.337893,5.91531 -5.77923,11.8338 -7.414744,31.39976 0.162871,48.02802 4.792915,8.17977 20.888866,3.84947 17.42712,-7.59765 -2.827638,-11.62184 -1.020498,-22.45906 1.031512,-34.0809 1.364793,-7.42958 -3.713756,-12.31968 -9.28361,-12.26478 z m 67.808352,5.31835 c 13.39734,0 24.21339,10.86611 24.21339,24.25823 0,13.39211 -10.81605,24.25822 -24.21339,24.25822 -13.39734,0 -24.26768,-10.86611 -24.26768,-24.25822 0,-13.39212 10.87034,-24.25823 24.26768,-24.25823 z m 77.68916,91.60599 c -2.97741,-0.0222 -6.2558,1.33531 -9.28361,4.77567 -8.75087,9.95893 -27.19845,20.68389 -41.26049,24.04114 -12.75154,3.03528 -10.20122,20.91717 2.11732,19.80817 22.55395,-3.05403 42.75868,-18.59827 56.19026,-32.66991 5.47227,-6.78035 -0.15461,-15.8984 -7.76348,-15.95507 z"
     id="path2938"
     inkscape:connector-curvature="0" /></g></svg>